<?xml version="1.0" encoding="UTF-8"?>
<svg id="Layer_1" xmlns="http://www.w3.org/2000/svg" version="1.1" viewBox="0 0 24 25">
  <!-- Generator: Adobe Illustrator 29.7.1, SVG Export Plug-In . SVG Version: 2.1.1 Build 8)  -->
  <path d="M17.5.5H6.5C2.9.5,0,3.4,0,7v10.9c0,3.7,2.9,6.6,6.5,6.6h10.9c3.6,0,6.5-2.9,6.5-6.5V7c0-3.6-2.9-6.5-6.5-6.5h.1ZM21.8,18c0,2.4-2,4.4-4.4,4.4H6.5c-2.4,0-4.4-2-4.4-4.4V7c0-2.4,2-4.4,4.4-4.4h10.9c2.4,0,4.4,2,4.4,4.4v10.9h0Z" fill="#111"/>
  <path d="M17.5,11.4h-4.4v-4.4c0-.6-.5-1.1-1.1-1.1s-1.1.5-1.1,1.1v4.4h-4.4c-.6,0-1.1.5-1.1,1.1s.5,1.1,1.1,1.1h4.4v4.4c0,.6.5,1.1,1.1,1.1s1.1-.5,1.1-1.1v-4.4h4.4c.6,0,1.1-.5,1.1-1.1s-.5-1.1-1.1-1.1Z" fill="#111"/>
</svg>