<?xml version="1.0" encoding="UTF-8"?>
<svg id="Layer_1" xmlns="http://www.w3.org/2000/svg" version="1.1" viewBox="0 0 24 25">
  <!-- Generator: Adobe Illustrator 29.6.1, SVG Export Plug-In . SVG Version: 2.1.1 Build 9)  -->
  <defs>
    <style>
      .st0 {
        fill: #111;
      }
    </style>
  </defs>
  <path class="st0" d="M17.5.5H6.5C2.9.5,0,3.4,0,7v10.9C0,21.6,2.9,24.5,6.5,24.5h10.9c3.6,0,6.5-2.9,6.5-6.5V7c0-3.6-2.9-6.5-6.5-6.5ZM21.8,18c0,2.4-2,4.4-4.4,4.4H6.5c-2.4,0-4.4-2-4.4-4.4V7c0-2.4,2-4.4,4.4-4.4h10.9c2.4,0,4.4,2,4.4,4.4v10.9Z"/>
  <path class="st0" d="M17.5,11.4h-4.4v-4.4c0-.6-.5-1.1-1.1-1.1-.6,0-1.1.5-1.1,1.1v4.4h-4.4c-.6,0-1.1.5-1.1,1.1,0,.6.5,1.1,1.1,1.1h4.4v4.4c0,.6.5,1.1,1.1,1.1.6,0,1.1-.5,1.1-1.1v-4.4h4.4c.6,0,1.1-.5,1.1-1.1,0-.6-.5-1.1-1.1-1.1Z"/>
</svg>