<svg width="24" height="24" viewBox="0 0 24 24" fill="none" xmlns="http://www.w3.org/2000/svg">
<path fill-rule="evenodd" clip-rule="evenodd" d="M18.9233 9.125H18.9204C20.0508 10.7397 21.141 12.7539 21.1411 15C21.1411 19.9702 17.0482 23.9994 12.0005 24C6.9523 24 2.85889 19.9705 2.85889 15C2.85898 12.7536 3.81684 10.8328 5.08057 9.125H5.07666L12.1343 0L18.9233 9.125ZM7.17041 10.5029L7.09033 10.6123C6.0563 12.0097 5.44069 13.3288 5.36768 14.7207L5.35986 15C5.35986 18.5534 8.29631 21.5 12.0005 21.5C12.0527 21.5 12.1048 21.4963 12.1567 21.4951V4.21777L12.0952 4.13574L7.17041 10.5029Z" fill="#111111"/>
</svg>
