<?xml version="1.0" encoding="UTF-8"?>
<svg id="Layer_1" xmlns="http://www.w3.org/2000/svg" version="1.1" viewBox="0 0 24 24">
  <!-- Generator: Adobe Illustrator 29.7.1, SVG Export Plug-In . SVG Version: 2.1.1 Build 8)  -->
  <path d="M18.9,21.4v.3c-.4,1.2-1.4,2.2-2.7,2.3h-.3s-7.8,0-7.8,0c-1.4,0-2.6-1-2.9-2.3v-.3c0,0-2.3-15.5-2.3-15.5h0c-.7,0-1.2-.6-1.2-1.2,0-.7.6-1.2,1.2-1.2h5v-1.5c0-1.1.9-2,2-2h4c1.1,0,2,.9,2,2v1.5h5c.7,0,1.2.6,1.2,1.2,0,.7-.6,1.2-1.2,1.2h0l-2.3,15.5ZM7.6,21.1c0,.2.2.4.5.4h7.8c.2,0,.5-.2.5-.4l2.2-15.1H5.4l2.2,15.1ZM10.5,3.5h3v-1h-3v1Z" fill="#111" fill-rule="evenodd"/>
</svg>