<?xml version="1.0" encoding="UTF-8"?>
<svg id="Layer_1" xmlns="http://www.w3.org/2000/svg" version="1.1" viewBox="0 0 56 57">
  <!-- Generator: Adobe Illustrator 29.7.1, SVG Export Plug-In . SVG Version: 2.1.1 Build 8)  -->
  <rect x="4" y=".5" width="48" height="48" rx="12" ry="12" fill="#7424ff"/>
  <path d="M21.8,32.8l-1.8-12.3h16l-1.8,12.3c0,.5-.3.9-.7,1.2-.4.3-.8.5-1.3.5h-8.5c-.5,0-.9-.2-1.3-.5-.4-.3-.6-.8-.7-1.2ZM37,16.5h-5v-1c0-.3-.1-.5-.3-.7s-.4-.3-.7-.3h-6c-.3,0-.5.1-.7.3s-.3.4-.3.7v1h-5c-.3,0-.5.1-.7.3s-.3.4-.3.7.1.5.3.7.4.3.7.3h18c.3,0,.5-.1.7-.3s.3-.4.3-.7-.1-.5-.3-.7-.4-.3-.7-.3Z" fill="#fff"/>
</svg>