<?xml version="1.0" encoding="UTF-8"?>
<svg id="Layer_1" xmlns="http://www.w3.org/2000/svg" version="1.1" viewBox="0 0 16 17">
  <!-- Generator: Adobe Illustrator 29.7.1, SVG Export Plug-In . SVG Version: 2.1.1 Build 8)  -->
  <path d="M15,5.2c.4.5,0,1.2-.7,1.2H1C.4,6.4,0,6,0,5.4v-1.3C0,2.2,1.6.6,3.5.6h1.9c1.3,0,1.7.4,2.2,1.1l1.1,1.5c.2.3.3.4.7.4h2.2c1.3,0,2.5.6,3.3,1.6Z" fill="#111"/>
  <path d="M15,7.6c.6,0,1,.4,1,1v3.7c0,2.4-1.9,4.3-4.3,4.3h-7.4c-2.4,0-4.3-1.9-4.3-4.3v-3.7c0-.6.4-1,1-1h14Z" fill="#111"/>
</svg>