<?xml version="1.0" encoding="UTF-8"?>
<svg id="Layer_1" xmlns="http://www.w3.org/2000/svg" version="1.1" viewBox="0 0 17 17">
  <!-- Generator: Adobe Illustrator 29.7.1, SVG Export Plug-In . SVG Version: 2.1.1 Build 8)  -->
  <path d="M15.9,5.2c.4.5,0,1.2-.7,1.2H1.9c-.6,0-1-.4-1-1v-1.3C.9,2.2,2.5.6,4.4.6h1.9c1.3,0,1.7.4,2.2,1.1l1.1,1.5c.2.3.3.4.7.4h2.2c1.3,0,2.5.6,3.3,1.6Z" fill="#111"/>
  <path d="M15.9,7.6c.6,0,1,.4,1,1v3.7c0,2.4-1.9,4.3-4.3,4.3h-7.4c-2.4,0-4.3-1.9-4.3-4.3v-3.7c0-.6.4-1,1-1h14ZM8.2,12.8h0l-1.4-1.4c-.3-.3-.7-.3-1,0-.3.3-.3.7,0,1l2.6,2.6c.3.3.7.3,1,0l2.6-2.6c.1-.1.2-.3.2-.5s0-.3-.2-.5c-.3-.3-.7-.3-1,0l-1.4,1.4v-3.7h-1.4v3.7Z" fill="#111"/>
</svg>