<svg width="16" height="17" viewBox="0 0 16 17" fill="none" xmlns="http://www.w3.org/2000/svg">
<path d="M15.0426 5.18576C15.4772 5.72469 15.0066 6.4195 14.3143 6.4195H1.00009C0.447807 6.4195 9.15527e-05 5.97179 9.15527e-05 5.4195V4.15551C9.15527e-05 2.20351 1.58409 0.619507 3.53609 0.619507H5.39209C6.69609 0.619507 7.10409 1.04351 7.62409 1.73951L8.74409 3.22751C8.99209 3.55551 9.02409 3.59551 9.48809 3.59551H11.7201C13.0618 3.59551 14.2601 4.2154 15.0426 5.18576Z" fill="#111111"/>
<path d="M14.9874 7.61934C15.5383 7.61933 15.9855 8.06498 15.9874 8.61595L16 12.3395C16 14.6995 14.08 16.6195 11.72 16.6195H4.28C1.92 16.6195 0 14.6995 0 12.3395V8.61952C0 8.06725 0.447707 7.61953 0.999987 7.61953L14.9874 7.61934Z" fill="#111111"/>
</svg>
