<?xml version="1.0" encoding="UTF-8"?>
<svg id="Layer_1" xmlns="http://www.w3.org/2000/svg" version="1.1" viewBox="0 0 99 33">
  <!-- Generator: Adobe Illustrator 29.7.1, SVG Export Plug-In . SVG Version: 2.1.1 Build 8)  -->
  <path d="M15.9,32.5c-5.1,0-8.9-1.4-11.5-4.1-2.6-2.8-3.8-6.5-3.8-11.2s.6-6.3,1.7-8.8c1.1-2.5,2.8-4.4,5.1-5.8,2.3-1.3,5.2-2,8.7-2s3.5.1,4.9.4c1.5.2,2.9.6,4.2,1v4.5c-2.6-1-5.5-1.4-8.7-1.4s-6.7,1-8.3,3.1c-1.6,2.1-2.4,5.1-2.4,9s.8,6.3,2.5,8.1c1.7,1.9,4.2,2.8,7.7,2.8s5-.3,6.7-1v-8.6h-7.7v-3.4h12.2v14.9c-1,.6-2.4,1.2-4.3,1.8-1.8.5-4.2.8-7,.8ZM32.3,32V1.1h14.2c3.5,0,6,.9,7.5,2.7,1.6,1.8,2.4,4.2,2.4,7.2s-.5,4-1.6,5.6c-1.1,1.5-2.7,2.6-4.7,3.2.6.4,1,.9,1.3,1.3s.6,1.1,1,1.9l3.9,9h-5.4l-3.8-8.6c-.4-.8-.8-1.4-1.3-1.8-.5-.4-1.3-.5-2.5-.5h-5.8v10.9h-5.2ZM37.5,16.8h7.6c1.9,0,3.4-.5,4.5-1.4,1.1-.9,1.6-2.4,1.6-4.5,0-3.9-1.9-5.8-5.6-5.8h-8.1v11.7ZM61.6,32V1.1h5.2v30.9h-5.2ZM72.9,32V1.1h12.5c4.6,0,8,1.2,10.2,3.6,2.2,2.4,3.3,6.4,3.3,12s-1.1,9.2-3.3,11.6c-2.2,2.4-5.6,3.6-10.2,3.6h-12.5ZM78.1,28h6.5c2,0,3.7-.3,5-.9,1.3-.6,2.4-1.7,3-3.4.7-1.6,1-4,1-7s-.3-5.4-.9-7.1c-.6-1.7-1.6-2.8-2.9-3.5-1.3-.7-3.1-1-5.2-1h-6.5v22.8Z" fill="#fff"/>
</svg>