<?xml version="1.0" encoding="UTF-8"?>
<svg id="Layer_1" xmlns="http://www.w3.org/2000/svg" version="1.1" viewBox="0 0 24 24">
  <!-- Generator: Adobe Illustrator 29.7.1, SVG Export Plug-In . SVG Version: 2.1.1 Build 8)  -->
  <path d="M12.8.3c-.5-.4-1.2-.4-1.7,0L.4,10.6c-.2.2-.4.5-.4.9v11.3c0,.7.5,1.2,1.2,1.2h8.4v-6c0-1.3,1.1-2.4,2.4-2.4s2.4,1.1,2.4,2.4v6h8.4c.7,0,1.2-.5,1.2-1.2v-11.3c0-.3-.1-.6-.4-.9L12.8.3ZM16.8,21.6h4.8v-9.6L12,2.9,2.4,12v9.6h4.8v-3.6c0-2.7,2.1-4.8,4.8-4.8s4.8,2.1,4.8,4.8v3.6Z" fill="#111" fill-rule="evenodd"/>
</svg>