<svg width="18" height="18" viewBox="0 0 18 18" fill="none" xmlns="http://www.w3.org/2000/svg">
<path d="M1.5 4C1.5 3.53976 1.8731 3.16667 2.33333 3.16667H15.6667C16.1269 3.16667 16.5 3.53976 16.5 4C16.5 4.46024 16.1269 4.83333 15.6667 4.83333H2.33333C1.8731 4.83333 1.5 4.46024 1.5 4Z" fill="#111111"/>
<path d="M1.5 9C1.5 8.53976 1.8731 8.16667 2.33333 8.16667H15.6667C16.1269 8.16667 16.5 8.53976 16.5 9C16.5 9.46024 16.1269 9.83333 15.6667 9.83333H2.33333C1.8731 9.83333 1.5 9.46024 1.5 9Z" fill="#111111"/>
<path d="M2.33333 13.1667C1.8731 13.1667 1.5 13.5398 1.5 14C1.5 14.4602 1.8731 14.8333 2.33333 14.8333H15.6667C16.1269 14.8333 16.5 14.4602 16.5 14C16.5 13.5398 16.1269 13.1667 15.6667 13.1667H2.33333Z" fill="#111111"/>
</svg>
