<?xml version="1.0" encoding="UTF-8"?>
<svg id="Layer_1" xmlns="http://www.w3.org/2000/svg" version="1.1" viewBox="0 0 18 18">
  <!-- Generator: Adobe Illustrator 29.7.1, SVG Export Plug-In . SVG Version: 2.1.1 Build 8)  -->
  <path d="M1.5,4c0-.5.4-.8.8-.8h13.3c.5,0,.8.4.8.8s-.4.8-.8.8H2.3c-.5,0-.8-.4-.8-.8Z" fill="#111"/>
  <path d="M1.5,9c0-.5.4-.8.8-.8h13.3c.5,0,.8.4.8.8s-.4.8-.8.8H2.3c-.5,0-.8-.4-.8-.8Z" fill="#111"/>
  <path d="M2.3,13.2c-.5,0-.8.4-.8.8s.4.8.8.8h13.3c.5,0,.8-.4.8-.8s-.4-.8-.8-.8H2.3Z" fill="#111"/>
</svg>